<svg width="30" height="30" viewBox="0 0 30 30" fill="none" xmlns="http://www.w3.org/2000/svg">
<path d="M15 0C11.0217 0 7.20648 1.58035 4.39347 4.39347C1.58035 7.20638 0 11.0218 0 15C0 18.9782 1.58035 22.7935 4.39347 25.6065C7.20638 28.4197 11.0218 30 15 30C18.9782 30 22.7935 28.4197 25.6065 25.6065C28.4197 22.7936 30 18.9782 30 15C30 11.0218 28.4197 7.20648 25.6065 4.39347C22.7936 1.58035 18.9782 0 15 0ZM7.53327 10.2299C7.58872 9.96353 7.70926 9.71514 7.8842 9.50693C8.08195 9.25854 8.38287 9.11498 8.70009 9.11687H11.346H21.1051C21.429 9.10536 21.7462 9.21146 21.9982 9.41549C22.2499 9.61952 22.4198 9.90767 22.4759 10.2268V10.2628C22.536 10.7581 22.4109 11.2581 22.125 11.667C21.8084 12.1424 21.4006 12.5502 20.9251 12.8668C19.536 13.7999 18.1501 14.7688 16.7731 15.7379C16.391 16.0347 15.9788 16.29 15.5431 16.4999C15.1918 16.6677 14.7818 16.661 14.4361 16.4819C14.0555 16.2806 13.6868 16.0573 13.3321 15.8129C12.1521 15.0129 10.9781 14.1978 9.8102 13.3678C9.26902 13.0349 8.76599 12.6436 8.31021 12.201C7.97643 11.8735 7.72553 11.4715 7.57821 11.0279C7.50016 10.7693 7.48488 10.4958 7.53322 10.23L7.53327 10.2299ZM21.1232 20.8981H10.6415H8.86252C8.49883 20.8956 8.15105 20.7489 7.89551 20.49C7.64022 20.2314 7.49812 19.8817 7.50043 19.518V14.9759V12.876C8.11542 13.5569 8.87736 13.9589 9.57336 14.448C10.7584 15.288 11.9493 16.116 13.1373 16.9531C13.5054 17.2113 13.9099 17.4135 14.3374 17.553C14.7739 17.6888 15.2425 17.6826 15.6754 17.535C16.1377 17.381 16.573 17.1552 16.9653 16.866C18.5073 15.786 20.0613 14.7179 21.6032 13.6351C21.9032 13.422 22.1793 13.173 22.4792 12.9301V13.878C22.4792 15.759 22.4641 17.6399 22.4792 19.518H22.4794C22.4741 19.8783 22.3304 20.2225 22.0778 20.4795C21.8252 20.7365 21.4835 20.8863 21.1234 20.898L21.1232 20.8981Z" fill="#F8F8F8"/>
</svg>
