<svg width="30" height="30" viewBox="0 0 30 30" fill="none" xmlns="http://www.w3.org/2000/svg">
<path fill-rule="evenodd" clip-rule="evenodd" d="M15 9.32387e-05C6.70915 9.32387e-05 0 6.70523 0 15.0001C0 18.1283 0.953973 21.0217 2.6485 23.5079C2.77615 23.6973 2.81069 23.9345 2.74215 24.1524L1.21871 29.2501L6.21096 27.5273V27.5276C6.42703 27.4554 6.66428 27.4857 6.8555 27.6094C9.19376 29.1266 11.9932 30 14.9997 30C23.2946 30 29.9997 23.2949 29.9997 15C29.9997 6.70513 23.2946 0 14.9997 0L15 9.32387e-05ZM8.85944 6.53902L11.5898 11.0507L10.4529 12.1758L10.4532 12.1761C10.2151 12.4159 10.1673 12.7856 10.336 13.0783C12.0708 16.0822 14.126 18.4192 17.0039 19.6876C17.2861 19.8131 17.6163 19.7527 17.836 19.5354L19.0429 18.3285L23.4492 21.0824C22.9614 22.1804 22.3252 22.8341 21.5978 23.215C20.755 23.6563 19.7257 23.7398 18.5509 23.4962C16.2014 23.0092 13.3635 21.1627 11.0509 18.7969C8.7383 16.4315 6.94854 13.5549 6.49238 11.2146C6.26429 10.0445 6.365 9.0369 6.79712 8.23809C7.16909 7.55016 7.80105 6.96135 8.85969 6.53887L8.85944 6.53902Z" fill="#F8F8F8"/>
</svg>
