<svg width="360" height="336" viewBox="0 0 360 336" fill="none" xmlns="http://www.w3.org/2000/svg">
<path d="M188.859 332.919C188.984 334.234 188.001 335.399 186.659 335.525C185.317 335.648 184.129 334.684 184.001 333.368C182.848 321.508 182.51 313.742 183.061 306.48C183.614 299.193 185.051 292.474 187.455 282.71C191.286 267.16 186.59 228.298 183.153 199.855C182.669 195.846 182.211 192.053 181.737 187.954C179.988 172.834 183.632 155.931 187.061 140.019C187.355 138.648 187.65 137.285 187.939 135.932C190.523 123.814 186.856 111.401 183.23 99.1247L182.971 98.2437C180.523 89.9453 179.813 82.7966 180.08 75.8387C180.344 68.9309 181.555 62.3143 182.966 54.9522C185.161 43.5136 183.903 25.7776 182.904 11.7186C182.674 8.48052 182.459 5.44085 182.292 2.52384C182.218 1.20353 183.25 0.0764994 184.597 0.00369478C185.944 -0.069097 187.094 0.942445 187.168 2.26276C187.317 4.89337 187.542 8.0435 187.78 11.3996C188.795 25.717 190.075 43.7801 187.765 55.833C186.387 63.0196 185.204 69.4705 184.956 76.0069C184.71 82.4931 185.371 89.1625 187.655 96.9107L187.914 97.7918C191.709 110.643 195.548 123.636 192.718 136.906C192.428 138.259 192.137 139.622 191.839 140.993C188.49 156.538 184.928 173.055 186.592 187.43C186.966 190.653 187.473 194.852 188.008 199.293C191.486 228.081 196.239 267.419 192.195 283.837C189.86 293.32 188.464 299.834 187.934 306.82C187.401 313.83 187.734 321.376 188.856 332.92L188.859 332.919ZM354.253 201.19C354.447 202.5 353.523 203.715 352.188 203.908C350.852 204.099 349.612 203.193 349.415 201.885C349.092 199.724 348.772 197.608 348.462 195.549C347.912 191.905 347.392 188.453 346.846 184.673C344.831 170.717 349.008 155.195 352.939 140.586C353.39 138.912 353.838 137.24 353.94 136.859C356.109 128.705 354.114 122.89 351.313 114.725L350.916 113.568C350.488 112.315 351.177 110.96 352.455 110.54C353.733 110.121 355.116 110.796 355.543 112.049L355.94 113.206C359.011 122.155 361.2 128.528 358.662 138.056C358.107 140.147 357.884 140.97 357.661 141.804C353.851 155.96 349.805 171.001 351.684 184.016C352.104 186.925 352.685 190.778 353.3 194.854C353.61 196.912 353.93 199.028 354.253 201.19V201.19ZM117.458 318.66C116.625 318.522 116.067 317.746 116.208 316.933C116.349 316.117 117.14 315.57 117.97 315.708C120.741 316.18 123.345 316.843 126.139 317.553C129.789 318.482 133.776 319.496 139.026 320.272C143.968 321.002 149.795 321.461 156.046 321.73C162.363 322.001 169.099 322.084 175.785 322.054C176.628 322.051 177.311 322.716 177.314 323.542C177.316 324.368 176.638 325.038 175.795 325.041C169.03 325.071 162.24 324.988 155.912 324.717C149.518 324.441 143.577 323.974 138.57 323.234C133.238 322.445 129.133 321.401 125.373 320.445C122.677 319.76 120.162 319.12 117.455 318.658L117.458 318.66ZM87.2925 310.058C86.4551 310.158 85.6919 309.573 85.5894 308.753C85.487 307.932 86.0837 307.184 86.9211 307.083C88.5985 306.878 90.2349 306.662 91.8329 306.438C93.6537 306.185 95.3772 305.931 97.0034 305.678C111.362 303.454 117.929 305.123 126.139 307.209C129.788 308.138 133.775 309.152 139.025 309.927C143.842 310.64 149.5 311.095 155.568 311.366C161.707 311.639 168.253 311.732 174.775 311.715C175.618 311.715 176.299 312.382 176.299 313.208C176.299 314.034 175.618 314.702 174.775 314.702C168.179 314.719 161.582 314.629 155.438 314.353C149.223 314.074 143.45 313.612 138.572 312.892C133.24 312.104 129.134 311.059 125.375 310.103C117.505 308.103 111.208 306.501 97.4715 308.63C95.5483 308.928 93.8171 309.184 92.2652 309.4C90.4905 309.649 88.8361 309.867 87.2944 310.055L87.2925 310.058ZM72.4367 296.441C71.0896 296.466 69.9782 295.417 69.95 294.099C69.9244 292.779 70.9949 291.689 72.3393 291.662C83.0183 291.421 94.0428 290.971 104.151 290.399C114.533 289.812 123.872 289.099 130.79 288.356C137.658 287.618 145.041 287.274 152.611 287.402C159.777 287.523 167.065 288.062 174.195 289.086C175.532 289.277 176.456 290.494 176.259 291.805C176.064 293.115 174.822 294.021 173.485 293.828C166.502 292.824 159.431 292.297 152.534 292.181C145.207 292.058 138.024 292.395 131.304 293.118C124.328 293.866 114.899 294.586 104.417 295.178C94.3804 295.746 83.3047 296.195 72.4336 296.441L72.4367 296.441ZM44.8347 275.951C43.5082 275.717 42.6272 274.475 42.8654 273.177C43.1036 271.877 44.3712 271.013 45.6952 271.247C47.6389 271.593 49.6135 271.997 51.7006 272.464C53.9491 272.966 56.172 273.493 58.5228 274.071C72.4797 277.492 107.46 273.285 133.064 270.208C136.652 269.776 140.043 269.369 143.789 268.938C148.888 268.35 153.994 268.395 159.218 268.857C164.432 269.319 169.659 270.178 175.068 271.229C176.395 271.483 177.258 272.74 176.999 274.041C176.74 275.341 175.457 276.187 174.131 275.933C168.778 274.892 163.687 274.048 158.796 273.616C153.917 273.185 149.136 273.145 144.342 273.697C141.494 274.026 137.681 274.482 133.655 274.967C107.68 278.089 72.1902 282.357 57.337 278.717C54.794 278.094 52.5557 277.56 50.6302 277.13C48.5431 276.666 46.63 276.272 44.8374 275.951L44.8347 275.951ZM32.0146 255.97C31.172 255.938 30.5164 255.242 30.5497 254.419C30.583 253.593 31.2924 252.951 32.1324 252.983C43.8433 253.468 53.6517 253.774 63.7288 253.523C73.7883 253.272 84.1546 252.464 97.0259 250.717C111.347 248.774 117.9 250.232 126.09 252.057C129.765 252.875 133.78 253.769 138.995 254.444C143.919 255.082 149.546 255.486 155.613 255.722C161.718 255.96 168.246 256.033 174.94 256.008C175.782 256.008 176.463 256.676 176.463 257.501C176.463 258.327 175.782 258.995 174.94 258.995C168.179 259.02 161.607 258.95 155.495 258.709C149.341 258.468 143.625 258.059 138.6 257.406C133.232 256.711 129.155 255.802 125.419 254.971C117.532 253.214 111.219 251.809 97.4435 253.679C84.4778 255.438 73.9981 256.254 63.801 256.507C53.6215 256.761 43.7666 256.452 32.0124 255.968L32.0146 255.97ZM26.547 246.681C25.7044 246.645 25.054 245.948 25.0898 245.122C25.1257 244.296 25.8376 243.658 26.6802 243.694C39.9586 244.263 50.6527 244.695 61.4497 244.514C72.2363 244.334 83.1867 243.54 97.0289 241.66C111.35 239.718 117.9 241.176 126.093 243.001C129.768 243.819 133.783 244.713 138.998 245.388C144.007 246.035 149.62 246.442 155.682 246.678C161.782 246.916 168.305 246.982 175.107 246.949C175.949 246.946 176.633 247.612 176.635 248.437C176.638 249.263 175.959 249.933 175.117 249.936C168.243 249.969 161.669 249.903 155.559 249.665C149.413 249.426 143.707 249.012 138.601 248.35C133.233 247.654 129.156 246.746 125.42 245.915C117.532 244.158 111.22 242.752 97.4443 244.622C83.4978 246.515 72.4268 247.315 61.4967 247.499C50.577 247.682 39.8541 247.25 26.5475 246.678L26.547 246.681ZM19.7478 232.325C18.429 232.062 17.5762 230.799 17.8451 229.504C18.114 228.211 19.4021 227.375 20.7236 227.639C28.3704 229.17 45.37 229.607 64.326 229.399C88.3909 229.132 115.527 227.82 130.817 226.381C137.731 225.731 144.804 225.362 152.049 225.413C159.325 225.463 166.746 225.932 174.311 226.956C175.648 227.137 176.58 228.347 176.396 229.655C176.212 230.965 174.977 231.878 173.643 231.698C166.257 230.699 159.059 230.239 152.031 230.192C144.971 230.144 138.057 230.503 131.278 231.141C115.894 232.586 88.5847 233.909 64.3676 234.178C45.1121 234.391 27.7565 233.929 19.751 232.325L19.7478 232.325ZM13.197 215.917C11.8499 216.03 10.6642 215.053 10.549 213.733C10.4337 212.413 11.43 211.251 12.7769 211.138C23.4356 210.237 30.4374 209.97 37.0261 210.407C43.6227 210.844 49.6719 211.971 58.4458 213.854C72.4795 216.866 107.482 213.178 133.099 210.48C136.796 210.091 140.292 209.722 143.814 209.368C149.01 208.843 153.888 208.841 158.864 209.21C163.82 209.579 168.849 210.309 174.381 211.263C175.712 211.492 176.601 212.732 176.371 214.037C176.138 215.342 174.872 216.213 173.541 215.987C168.137 215.056 163.249 214.343 158.503 213.992C153.778 213.64 149.174 213.64 144.312 214.13C141.237 214.441 137.533 214.83 133.616 215.242C107.658 217.975 72.1896 221.71 57.4157 218.54C48.8444 216.7 42.967 215.601 36.7028 215.186C30.4285 214.772 23.6341 215.036 13.1984 215.917L13.197 215.917ZM8.92538 198.763C8.08281 198.73 7.42721 198.035 7.46052 197.212C7.49381 196.386 8.20317 195.743 9.04319 195.776L10.3697 195.829C40.573 197.016 58.4072 197.716 89.356 193.873C104.975 191.936 112.118 193.389 121.045 195.206C125.053 196.022 129.429 196.913 135.176 197.593C140.687 198.246 146.869 198.655 153.513 198.891C160.219 199.129 167.398 199.197 174.83 199.165C175.673 199.162 176.356 199.827 176.359 200.653C176.361 201.479 175.683 202.149 174.84 202.152C167.341 202.184 160.12 202.116 153.403 201.878C146.621 201.637 140.35 201.225 134.815 200.57C128.992 199.88 124.518 198.969 120.42 198.135C111.765 196.373 104.84 194.963 89.7353 196.838C58.5204 200.713 40.5964 200.008 10.2442 198.816L8.91771 198.763L8.92538 198.763ZM4.51034 189.531C3.66776 189.499 3.01216 188.803 3.04547 187.98C3.07876 187.154 3.78813 186.511 4.62814 186.544C6.59237 186.619 8.50285 186.695 10.3672 186.767C40.5705 187.955 58.4073 188.655 89.36 184.812C104.979 182.874 112.122 184.328 121.049 186.145C125.057 186.961 129.433 187.852 135.18 188.532C140.691 189.185 146.809 189.591 153.391 189.825C160.037 190.061 167.15 190.126 174.582 190.096C175.425 190.093 176.109 190.758 176.111 191.584C176.114 192.41 175.435 193.08 174.592 193.083C167.094 193.115 159.934 193.05 153.28 192.812C146.56 192.573 140.353 192.162 134.819 191.506C128.995 190.816 124.521 189.905 120.424 189.072C111.768 187.31 104.84 185.899 89.7386 187.774C58.5211 191.65 40.5971 190.944 10.241 189.752C8.37665 189.679 6.46624 189.604 4.50201 189.529L4.51034 189.531ZM1.99297 175.045C0.66644 174.802 -0.204324 173.552 0.0415248 172.252C0.289937 170.951 1.56526 170.098 2.89186 170.339C11.4402 171.905 31.1284 172.422 52.9453 172.284C79.7455 172.116 109.757 170.949 126.313 169.523C134.07 168.855 142.247 168.532 150.665 168.657C158.471 168.773 166.386 169.272 174.252 170.236C175.594 170.397 176.546 171.591 176.385 172.907C176.221 174.222 175.002 175.156 173.66 174.998C165.864 174.044 158.136 173.549 150.609 173.439C142.471 173.318 134.448 173.642 126.734 174.305C110.193 175.728 80.0226 176.895 52.9596 177.066C30.8614 177.204 10.8427 176.667 1.98694 175.045L1.99297 175.045ZM117.968 15.1065C117.136 15.2445 116.347 14.6973 116.206 13.8816C116.065 13.0658 116.623 12.2926 117.456 12.1546C120.163 11.6928 122.675 11.0527 125.374 10.3675C129.133 9.41111 133.241 8.36691 138.573 7.57878C143.58 6.83834 149.521 6.37143 155.916 6.09532C162.244 5.82172 169.033 5.7414 175.799 5.77151C176.641 5.77402 177.32 6.44674 177.317 7.27002C177.315 8.09587 176.628 8.761 175.788 8.7585C169.102 8.73089 162.366 8.81121 156.049 9.0823C149.798 9.35088 143.969 9.81022 139.029 10.5406C133.779 11.3162 129.792 12.3304 126.143 13.2591C123.349 13.9695 120.744 14.6321 117.973 15.104L117.968 15.1065ZM86.9196 23.7261C86.0847 23.6257 85.4906 22.8802 85.593 22.0619C85.6955 21.2436 86.4561 20.6613 87.2909 20.7617C89.0682 20.9801 90.7251 21.1985 92.2616 21.4118C93.8136 21.6277 95.5447 21.8862 97.468 22.1824C111.205 24.3109 117.502 22.7095 125.371 20.7089C129.131 19.7526 133.239 18.7084 138.568 17.9203C143.447 17.1999 149.219 16.7355 155.434 16.4594C161.578 16.1833 168.175 16.0929 174.772 16.1105C175.615 16.1105 176.296 16.7782 176.296 17.604C176.296 18.4298 175.614 19.0975 174.772 19.0975C168.249 19.0799 161.706 19.1728 155.565 19.4464C149.496 19.7175 143.838 20.1718 139.022 20.8847C133.772 21.6603 129.784 22.6744 126.135 23.6031C117.927 25.689 111.359 27.3608 96.9999 25.1343C95.3737 24.8833 93.6502 24.6298 91.8294 24.3737C89.9932 24.1177 88.3593 23.9018 86.9175 23.7236L86.9196 23.7261ZM72.3378 39.1532C70.9907 39.1281 69.9203 38.0362 69.9485 36.7159C69.9741 35.3956 71.0881 34.3464 72.4352 34.374C83.3089 34.62 94.3845 35.0693 104.421 35.6365C114.903 36.2289 124.33 36.9493 131.306 37.6973C138.026 38.4202 145.209 38.7565 152.536 38.6335C159.433 38.5181 166.503 37.9884 173.487 36.9869C174.824 36.7961 176.063 37.7023 176.26 39.01C176.455 40.3203 175.53 41.5352 174.196 41.7285C167.067 42.7526 159.778 43.2923 152.615 43.4128C145.043 43.5408 137.662 43.1969 130.791 42.4589C123.877 41.7159 114.537 41.0031 104.155 40.4157C94.0443 39.8434 83.0198 39.3941 72.3408 39.1531L72.3378 39.1532ZM45.6937 59.57C44.3672 59.8034 43.1021 58.9374 42.8639 57.6397C42.6257 56.3395 43.5092 55.0995 44.8332 54.8661C46.6285 54.5448 48.5414 54.1532 50.626 53.6864C52.5518 53.2571 54.7927 52.7225 57.3328 52.1C72.1833 48.4603 107.673 52.7275 133.651 55.85C137.679 56.3345 141.49 56.7938 144.338 57.1201C149.134 57.6724 153.913 57.6322 158.792 57.2005C163.68 56.7687 168.774 55.9253 174.127 54.8836C175.453 54.6301 176.736 55.4785 176.995 56.7762C177.253 58.0764 176.388 59.334 175.064 59.5875C169.653 60.6418 164.426 61.5002 159.214 61.9596C153.99 62.4214 148.883 62.4666 143.785 61.8792C140.036 61.4475 136.645 61.0409 133.06 60.6091C107.458 57.5317 72.4814 53.3248 58.5185 56.7461C56.1676 57.3234 53.9422 57.8506 51.6964 58.3526C49.6093 58.8169 47.6374 59.2211 45.691 59.5699L45.6937 59.57ZM32.1334 77.8335C31.2908 77.8661 30.584 77.2235 30.5507 76.3977C30.5174 75.5718 31.173 74.8791 32.0155 74.8464C43.7704 74.3595 53.6246 74.0532 63.8041 74.3068C74.0019 74.5603 84.4809 75.3761 97.4467 77.1356C111.222 79.0057 117.535 77.6 125.422 75.8429C129.156 75.0121 133.236 74.1035 138.603 73.4081C143.625 72.758 149.344 72.3464 155.498 72.1054C161.611 71.867 168.185 71.7942 174.943 71.8193C175.785 71.8193 176.466 72.487 176.466 73.3128C176.466 74.1386 175.785 74.8062 174.943 74.8062C168.248 74.7811 161.723 74.8539 155.616 75.0924C149.549 75.3308 143.92 75.7325 138.998 76.37C133.784 77.0453 129.768 77.9388 126.093 78.7571C117.903 80.5819 111.35 82.0403 97.0291 80.0975C84.1577 78.3504 73.7914 77.5422 63.732 77.2912C53.6574 77.0402 43.8464 77.3489 32.1355 77.8308L32.1334 77.8335ZM26.6786 87.1233C25.836 87.1584 25.1267 86.5184 25.0883 85.695C25.0524 84.8692 25.7054 84.1739 26.5454 84.1363C39.8521 83.564 50.5744 83.1322 61.4946 83.3155C72.4274 83.4987 83.4958 84.2994 97.4423 86.1921C111.218 88.0621 117.53 86.6564 125.418 84.8994C129.152 84.0685 133.231 83.1599 138.599 82.4646C143.705 81.8019 149.411 81.3902 155.557 81.1493C161.667 80.9108 168.241 80.8456 175.115 80.8782C175.957 80.8807 176.636 81.5534 176.633 82.3767C176.631 83.2025 175.944 83.8677 175.104 83.8652C168.303 83.8325 161.778 83.9003 155.68 84.1363C149.618 84.3722 144.004 84.7788 138.996 85.4264C133.782 86.1017 129.766 86.9952 126.091 87.8135C117.901 89.6383 111.348 91.0967 97.0269 89.1539C83.1853 87.2738 72.2349 86.4806 61.4477 86.2999C50.6507 86.1192 39.9566 86.5484 26.6781 87.1207L26.6786 87.1233ZM20.7245 103.178C19.4056 103.441 18.1149 102.608 17.846 101.313C17.5771 100.02 18.4273 98.7548 19.7488 98.4913C27.7542 96.8874 45.1098 96.4255 64.3654 96.6389C88.5837 96.9049 115.894 98.2278 131.276 99.6761C138.054 100.314 144.972 100.675 152.029 100.625C159.056 100.577 166.255 100.118 173.641 99.1189C174.978 98.9381 176.209 99.8518 176.394 101.162C176.578 102.472 175.646 103.68 174.309 103.86C166.742 104.885 159.323 105.354 152.047 105.404C144.802 105.454 137.729 105.085 130.814 104.435C115.526 102.997 88.3874 101.682 64.3237 101.418C45.3652 101.21 28.3682 101.646 20.7213 103.178L20.7245 103.178ZM12.778 119.679C11.4309 119.566 10.4348 118.404 10.55 117.084C10.6653 115.763 11.851 114.787 13.198 114.9C23.6312 115.783 30.4278 116.044 36.7025 115.63C42.9665 115.216 48.8441 114.117 57.4154 112.277C72.1919 109.104 107.661 112.842 133.615 115.575C137.531 115.987 141.237 116.378 144.312 116.687C149.173 117.177 153.775 117.177 158.502 116.825C163.248 116.471 168.136 115.758 173.54 114.83C174.872 114.601 176.137 115.475 176.37 116.78C176.603 118.085 175.712 119.325 174.38 119.554C168.851 120.505 163.819 121.238 158.864 121.607C153.888 121.976 149.01 121.973 143.813 121.449C140.292 121.095 136.796 120.726 133.098 120.337C107.481 117.638 72.4759 113.951 58.4455 116.963C49.6716 118.846 43.6231 119.975 37.0258 120.41C30.4364 120.844 23.4353 120.58 12.7766 119.679L12.778 119.679ZM9.04673 135.041C8.20416 135.073 7.49736 134.431 7.46405 133.605C7.43076 132.779 8.08636 132.086 8.92892 132.054L10.2529 132.001C40.6077 130.809 58.5317 130.103 89.7439 133.979C104.846 135.854 111.773 134.443 120.429 132.681C124.527 131.848 128.998 130.937 134.824 130.246C140.358 129.591 146.63 129.18 153.412 128.939C160.129 128.7 167.351 128.632 174.849 128.665C175.691 128.668 176.37 129.34 176.367 130.164C176.365 130.989 175.679 131.654 174.839 131.652C167.404 131.619 160.229 131.687 153.521 131.926C146.878 132.162 140.696 132.571 135.185 133.223C129.438 133.904 125.062 134.795 121.054 135.61C112.126 137.428 104.984 138.884 89.3646 136.943C58.4106 133.1 40.5765 133.801 10.3718 134.988L9.04785 135.041L9.04673 135.041ZM4.63168 144.273C3.78911 144.305 3.08231 143.663 3.04901 142.837C3.01572 142.011 3.67131 141.318 4.51387 141.286C6.4781 141.21 8.38858 141.135 10.2529 141.062C40.6077 139.87 58.5317 139.165 89.7505 143.04C104.852 144.915 111.78 143.505 120.436 141.743C124.531 140.909 129.004 139.998 134.831 139.308C140.365 138.653 146.572 138.241 153.292 138.002C159.948 137.767 167.106 137.699 174.604 137.731C175.447 137.734 176.126 138.407 176.123 139.23C176.12 140.056 175.434 140.721 174.594 140.718C167.16 140.686 160.046 140.754 153.403 140.989C146.821 141.223 140.703 141.63 135.192 142.282C129.445 142.962 125.069 143.853 121.061 144.669C112.133 146.487 104.991 147.942 89.3718 146.002C58.4179 142.159 40.5837 142.859 10.379 144.047C8.51465 144.119 6.60424 144.195 4.64001 144.27L4.63168 144.273ZM2.89285 160.475C1.56631 160.719 0.290916 159.863 0.0425102 158.563C-0.205902 157.263 0.667373 156.012 1.99396 155.769C10.8471 154.147 30.8684 153.61 52.9639 153.748C80.025 153.919 110.196 155.086 126.738 156.509C134.452 157.172 142.475 157.496 150.614 157.376C158.14 157.265 165.869 156.771 173.664 155.817C175.006 155.656 176.225 156.592 176.389 157.908C176.553 159.223 175.598 160.418 174.256 160.578C166.391 161.542 158.476 162.039 150.67 162.157C142.249 162.283 134.075 161.959 126.317 161.291C109.758 159.865 79.7472 158.698 52.9497 158.53C31.1334 158.392 11.4446 158.909 2.89625 160.475L2.89285 160.475ZM340.551 224.154C340.71 225.469 339.75 226.659 338.41 226.815C337.068 226.97 335.854 226.029 335.696 224.716C334.456 214.686 332.927 204.555 331.573 195.559C331.022 191.91 330.502 188.458 329.954 184.673C327.939 170.717 332.115 155.195 336.046 140.586C336.495 138.919 336.945 137.243 337.048 136.859C339.947 125.968 335.793 114.704 331.685 103.563C331.67 103.522 331.657 103.482 331.644 103.442L331.388 102.744C330.569 100.523 329.923 98.2689 329.429 96.0024C328.937 93.7508 328.584 91.4315 328.348 89.0747C328.223 87.7594 329.206 86.5947 330.548 86.4692C331.89 86.3462 333.078 87.3101 333.206 88.6254C333.419 90.7515 333.747 92.885 334.213 95.0086C334.674 97.117 335.258 99.1653 335.98 101.131L336.233 101.816C336.249 101.854 336.264 101.891 336.28 101.929C340.643 113.767 345.056 125.732 341.775 138.054C341.22 140.145 340.999 140.961 340.774 141.799C336.963 155.956 332.917 170.999 334.797 184.014C335.217 186.923 335.798 190.781 336.415 194.863C337.78 203.909 339.317 214.1 340.559 224.15L340.551 224.154ZM313.188 267.277C313.208 268.103 312.543 268.786 311.7 268.806C310.857 268.826 310.161 268.173 310.14 267.348C310.01 262.019 309.69 256.627 309.111 250.856C308.535 245.101 307.697 238.958 306.532 232.108C304.05 217.537 305.915 210.868 308.243 202.53C309.283 198.812 310.417 194.751 311.277 189.452C312.758 180.342 313.242 168.161 313.267 155.807C313.293 143.422 312.858 130.829 312.509 120.961C312.322 115.688 311.818 111.815 310.96 108.31C310.102 104.816 308.875 101.636 307.244 97.7731C305.039 92.5446 304.596 87.7732 305.103 83.0791C305.6 78.4756 307.014 74.0027 308.558 69.2463C308.911 68.1569 309.193 67.0324 309.413 65.8827C309.628 64.7507 309.779 63.5734 309.877 62.3585C309.943 61.5327 310.678 60.9177 311.521 60.983C312.363 61.0483 312.991 61.7687 312.924 62.5945C312.822 63.8671 312.655 65.1448 312.412 66.4224C312.174 67.6799 311.859 68.9249 311.462 70.1499C309.969 74.7433 308.606 79.058 308.138 83.3858C307.679 87.6254 308.079 91.9302 310.064 96.6391C311.744 100.62 313.014 103.916 313.923 107.623C314.829 111.323 315.362 115.382 315.557 120.872C315.908 130.738 316.343 143.339 316.315 155.809C316.289 168.31 315.797 180.649 314.289 189.924C313.406 195.363 312.246 199.515 311.183 203.318C308.952 211.298 307.17 217.681 309.544 231.619C310.717 238.51 311.562 244.72 312.148 250.565C312.732 256.396 313.057 261.861 313.19 267.28L313.188 267.277ZM301.674 279.004C301.661 279.83 300.967 280.488 300.127 280.475C299.285 280.463 298.614 279.783 298.627 278.959C298.768 271.587 298.65 264.529 298.104 256.964C297.559 249.421 296.581 241.403 294.998 232.111C292.516 217.54 294.381 210.87 296.709 202.532C297.748 198.815 298.883 194.754 299.743 189.454C301.224 180.345 301.708 168.164 301.733 155.809C301.759 143.425 301.323 130.832 300.975 120.964C300.788 115.69 300.284 111.818 299.426 108.313C298.568 104.819 297.341 101.638 295.71 97.7759C293.505 92.5473 293.062 87.776 293.569 83.0819C294.066 78.4784 295.479 74.0054 297.024 69.249C297.771 66.9448 298.202 64.5577 298.391 62.108C298.581 59.6481 298.527 57.128 298.312 54.5776C298.243 53.7517 298.867 53.0288 299.71 52.9611C300.553 52.8933 301.29 53.5058 301.359 54.3316C301.587 57.0224 301.643 59.6957 301.439 62.3311C301.234 64.9792 300.76 67.5923 299.928 70.1526C298.435 74.7461 297.072 79.0608 296.604 83.3885C296.145 87.6281 296.545 91.933 298.529 96.6418C300.209 100.623 301.48 103.918 302.389 107.626C303.295 111.326 303.828 115.385 304.023 120.874C304.373 130.741 304.809 143.342 304.781 155.812C304.755 168.312 304.263 180.652 302.755 189.927C301.871 195.366 300.711 199.518 299.649 203.321C297.418 211.301 295.636 217.684 298.01 231.622C299.61 241.025 300.599 249.133 301.152 256.756C301.702 264.359 301.818 271.507 301.674 279.008L301.674 279.004ZM283.986 295.814C283.907 297.135 282.752 298.141 281.405 298.063C280.058 297.986 279.031 296.854 279.11 295.533C279.884 283.169 279.802 266.201 279.223 249.292C278.552 229.638 277.21 210.034 275.768 197.825C274.805 189.657 274.496 180.448 274.915 171.143C275.315 162.313 276.37 153.407 278.15 145.232C280.729 133.382 277.064 121.226 273.44 109.202L273.182 108.339C270.734 100.204 270.024 93.1904 270.29 86.3578C270.554 79.5708 271.766 73.0846 273.177 65.8729C274.314 60.0696 275.189 55.2028 275.643 50.476C276.099 45.7344 276.147 41.0306 275.638 35.5031C275.522 34.1878 276.513 33.0307 277.855 32.9178C279.197 32.8048 280.378 33.7762 280.493 35.0915C281.031 40.9299 280.977 45.8972 280.498 50.9074C280.017 55.9301 279.126 60.8951 277.976 66.7715C276.598 73.8174 275.415 80.1404 275.166 86.5258C274.92 92.8688 275.581 99.3974 277.866 106.988L278.124 107.852C281.922 120.455 285.763 133.196 282.928 146.224C281.202 154.161 280.178 162.795 279.791 171.35C279.384 180.374 279.686 189.325 280.626 197.281C282.073 209.53 283.42 229.283 284.099 249.142C284.683 266.216 284.767 283.342 283.986 295.815L283.986 295.814ZM260.674 311.342C260.784 312.662 259.783 313.819 258.436 313.927C257.089 314.035 255.908 313.054 255.798 311.733C255.043 303.109 254.966 297.007 255.626 290.99C256.285 284.998 257.67 279.2 259.839 271.14C263.657 256.965 258.968 221.481 255.537 195.508C254.925 190.879 254.346 186.497 254.11 184.634C252.354 170.743 256.005 155.246 259.445 140.66C259.739 139.407 260.034 138.16 260.323 136.922C262.879 125.958 259.227 114.65 255.614 103.463L255.355 102.657C252.896 95.0367 252.187 88.4547 252.453 82.0392C252.717 75.7087 253.934 69.6341 255.35 62.8825C257.396 53.1255 256.42 42.413 255.475 32.0212C255.168 28.6326 254.861 25.274 254.669 22.2044C254.589 20.8841 255.616 19.7521 256.963 19.6743C258.31 19.5964 259.465 20.603 259.545 21.9233C259.752 25.2442 260.039 28.4121 260.331 31.6096C261.309 42.3452 262.315 53.415 260.131 63.839C258.758 70.3876 257.58 76.2665 257.332 82.2278C257.086 88.1039 257.747 94.158 260.023 101.214L260.282 102.02C264.093 113.815 267.942 125.738 265.086 137.99C264.797 139.227 264.505 140.475 264.208 141.727C260.866 155.907 257.314 170.973 258.968 184.052C259.58 188.882 259.967 191.808 260.374 194.909C263.857 221.275 268.618 257.3 264.561 272.359C262.451 280.198 261.107 285.811 260.482 291.496C259.859 297.156 259.941 302.997 260.671 311.341L260.674 311.342ZM239.631 321.485C239.592 322.311 238.878 322.946 238.035 322.908C237.193 322.87 236.545 322.17 236.583 321.344L236.65 319.999C238.158 289.379 239.049 271.296 234.158 239.882C231.684 224.003 233.543 216.734 235.864 207.65C236.906 203.571 238.043 199.116 238.903 193.33C240.389 183.337 240.873 170.006 240.898 156.492C240.924 142.945 240.489 129.172 240.14 118.383C239.953 112.613 239.446 108.358 238.578 104.493C237.713 100.637 236.486 97.1581 234.857 92.9364C232.67 87.2661 232.23 82.0851 232.734 76.9875C233.231 71.9673 234.637 67.0949 236.179 61.9118C239.213 51.7031 236.614 37.815 234.281 25.345C233.464 20.9849 232.68 16.7928 232.168 12.9226C232.063 12.1043 232.655 11.3563 233.49 11.2533C234.324 11.1504 235.088 11.7303 235.193 12.5485C235.689 16.2936 236.468 20.4651 237.282 24.8052C239.677 37.6041 242.345 51.8566 239.108 62.7426C237.61 67.7854 236.243 72.5195 235.771 77.2682C235.31 81.9395 235.713 86.6859 237.715 91.8818C239.398 96.2419 240.668 99.8415 241.569 103.86C242.468 107.871 242.996 112.292 243.19 118.288C243.541 129.079 243.977 142.857 243.948 156.489C243.923 170.154 243.431 183.638 241.928 193.749C241.042 199.705 239.887 204.23 238.827 208.372C236.588 217.13 234.798 224.138 237.18 239.435C242.112 271.107 241.216 289.31 239.695 320.137L239.628 321.482L239.631 321.485ZM227.878 325.965C227.84 326.791 227.126 327.426 226.283 327.389C225.44 327.351 224.793 326.651 224.831 325.825C224.928 323.832 225.023 321.892 225.118 320.001C226.626 289.379 227.517 271.298 222.626 239.884C220.152 224.005 222.011 216.736 224.332 207.652C225.374 203.573 226.511 199.118 227.371 193.332C228.857 183.339 229.341 170.008 229.366 156.494C229.392 142.947 228.957 129.174 228.608 118.386C228.421 112.615 227.914 108.36 227.046 104.495C226.181 100.64 224.954 97.1607 223.325 92.9389C221.138 87.2687 220.698 82.0876 221.202 76.99C221.699 71.9699 223.105 67.0975 224.647 61.9144C227.748 51.4801 225.315 37.3986 223.102 24.5745C222.173 19.1879 221.279 14.022 220.836 9.32796C220.759 8.50719 221.379 7.77921 222.216 7.70647C223.054 7.63116 223.796 8.2386 223.871 9.05943C224.298 13.5675 225.187 18.7181 226.114 24.0849C228.383 37.2226 230.875 51.6505 227.576 62.7505C226.078 67.7933 224.711 72.5274 224.239 77.276C223.778 81.9473 224.181 86.6937 226.183 91.8897C227.866 96.2497 229.136 99.8493 230.037 103.868C230.936 107.879 231.464 112.299 231.658 118.296C232.009 129.087 232.445 142.864 232.416 156.497C232.391 170.162 231.899 183.646 230.396 193.756C229.51 199.713 228.355 204.238 227.295 208.383C225.056 217.141 223.266 224.149 225.648 239.443C230.58 271.115 229.684 289.318 228.163 320.145C228.071 322.037 227.973 323.975 227.876 325.968L227.878 325.965ZM209.202 328.578C208.907 329.866 207.601 330.677 206.285 330.388C204.971 330.1 204.144 328.819 204.438 327.529C206.426 318.887 207.079 298.929 206.905 276.805C206.69 249.573 205.207 219.133 203.399 202.381C202.436 193.46 202.126 183.417 202.546 173.274C202.945 163.638 203.998 153.924 205.77 145.013C208.369 131.951 204.689 118.602 201.05 105.399L200.792 104.455C198.359 95.6173 197.655 87.9892 197.918 80.5571C198.182 73.1449 199.388 66.0765 200.794 58.2196C202.21 50.3126 203.332 40.8872 203.978 31.4798C204.587 22.5717 204.771 13.6931 204.372 6.14531C204.303 4.825 205.34 3.70047 206.684 3.63268C208.031 3.56491 209.179 4.58152 209.248 5.89927C209.66 13.663 209.476 22.7343 208.854 31.796C208.195 41.3968 207.051 51.0009 205.611 59.0428C204.228 66.7737 203.04 73.7117 202.792 80.7075C202.543 87.6808 203.209 94.8617 205.511 103.22L205.77 104.164C209.553 117.892 213.378 131.77 210.564 145.915C208.833 154.622 207.804 164.09 207.417 173.466C207.007 183.368 207.309 193.18 208.252 201.897C210.07 218.735 211.56 249.366 211.775 276.79C211.952 299.228 211.266 319.567 209.194 328.581L209.202 328.578Z" fill="#292F36"/>
</svg>
