<svg width="45" height="44" viewBox="0 0 85 84" fill="none" xmlns="http://www.w3.org/2000/svg">
<path d="M54.1845 83.3127V21.4218H30.8155L30.8149 83.3127H54.1845ZM33.4703 80.7092V36.3169H51.5267L51.5273 80.7092H33.4703ZM51.5282 24.0253V33.7129H33.4718L33.4712 24.0253H51.5282Z" fill="#E5E5E5"/>
<path d="M61.6326 83.3127H85V47.7278H61.6326V83.3127ZM64.2888 80.7092V62.6021H82.3437V80.7092H64.2888ZM82.3437 50.3313V59.9981H64.2888V50.3313H82.3437Z" fill="#E5E5E5"/>
<path d="M23.3689 0H0V83.3127H23.3674V0H23.3689ZM20.7127 2.60352V61.1962H2.65625V2.60352H20.7127ZM2.65625 80.7092V63.7997H20.7112V80.7092H2.65625Z" fill="#E5E5E5"/>
</svg>
