<svg width="134" height="134" viewBox="0 0 134 134" fill="none" xmlns="http://www.w3.org/2000/svg">
<path d="M18.725 37.45C29.0499 37.45 37.45 29.0499 37.45 18.725C37.45 8.40011 29.0499 0 18.725 0C8.40011 0 0 8.40011 0 18.725C0 29.0499 8.40011 37.45 18.725 37.45ZM18.725 5.35C26.0991 5.35 32.1 11.3509 32.1 18.725C32.1 26.0991 26.0991 32.1 18.725 32.1C11.3509 32.1 5.35 26.0991 5.35 18.725C5.35 11.3509 11.3509 5.35 18.725 5.35Z" fill="#292F36"/>
<path d="M66.875 37.45C77.199 37.45 85.6 29.0499 85.6 18.725C85.6 8.40011 77.199 0 66.875 0C56.5501 0 48.15 8.40011 48.15 18.725C48.15 29.0499 56.5501 37.45 66.875 37.45ZM66.875 5.35C74.2491 5.35 80.25 11.3509 80.25 18.725C80.25 26.0991 74.2491 32.1 66.875 32.1C59.5009 32.1 53.5 26.0991 53.5 18.725C53.5 11.3509 59.5009 5.35 66.875 5.35Z" fill="#292F36"/>
<path d="M115.025 0C104.701 0 96.3 8.40011 96.3 18.725C96.3 29.0499 104.701 37.45 115.025 37.45C125.349 37.45 133.75 29.0499 133.75 18.725C133.75 8.40011 125.349 0 115.025 0ZM115.025 32.1C107.651 32.1 101.65 26.0991 101.65 18.725C101.65 11.3509 107.651 5.35 115.025 5.35C122.399 5.35 128.4 11.3509 128.4 18.725C128.4 26.0991 122.399 32.1 115.025 32.1Z" fill="#292F36"/>
<path d="M18.725 85.5999C29.0499 85.5999 37.45 77.1989 37.45 66.8749C37.45 56.55 29.0499 48.1499 18.725 48.1499C8.40011 48.1499 0 56.55 0 66.8749C0 77.1989 8.40011 85.5999 18.725 85.5999ZM18.725 53.4999C26.0991 53.4999 32.1 59.5008 32.1 66.8749C32.1 74.249 26.0991 80.2499 18.725 80.2499C11.3509 80.2499 5.35 74.249 5.35 66.8749C5.35 59.5008 11.3509 53.4999 18.725 53.4999Z" fill="#292F36"/>
<path d="M66.875 85.5999C77.199 85.5999 85.6 77.1989 85.6 66.8749C85.6 56.55 77.199 48.1499 66.875 48.1499C56.5501 48.1499 48.15 56.55 48.15 66.8749C48.15 77.1989 56.5501 85.5999 66.875 85.5999ZM66.875 53.4999C74.2491 53.4999 80.25 59.5008 80.25 66.8749C80.25 74.249 74.2491 80.2499 66.875 80.2499C59.5009 80.2499 53.5 74.249 53.5 66.8749C53.5 59.5008 59.5009 53.4999 66.875 53.4999Z" fill="#292F36"/>
<path d="M115.025 48.1499C104.701 48.1499 96.3 56.55 96.3 66.8749C96.3 77.1989 104.701 85.5999 115.025 85.5999C125.349 85.5999 133.75 77.1989 133.75 66.8749C133.75 56.55 125.349 48.1499 115.025 48.1499ZM115.025 80.2499C107.651 80.2499 101.65 74.249 101.65 66.8749C101.65 59.5008 107.651 53.4999 115.025 53.4999C122.399 53.4999 128.4 59.5008 128.4 66.8749C128.4 74.249 122.399 80.2499 115.025 80.2499Z" fill="#292F36"/>
<path d="M37.45 115.025C37.45 104.701 29.0499 96.3 18.725 96.3C8.40011 96.3 0 104.701 0 115.025C0 125.349 8.40011 133.75 18.725 133.75C29.0499 133.75 37.45 125.349 37.45 115.025ZM18.725 128.4C11.3509 128.4 5.35 122.399 5.35 115.025C5.35 107.651 11.3509 101.65 18.725 101.65C26.0991 101.65 32.1 107.651 32.1 115.025C32.1 122.399 26.0991 128.4 18.725 128.4Z" fill="#292F36"/>
<path d="M66.875 133.75C77.199 133.75 85.6 125.349 85.6 115.025C85.6 104.701 77.199 96.3 66.875 96.3C56.5501 96.3 48.15 104.701 48.15 115.025C48.15 125.349 56.5501 133.75 66.875 133.75ZM66.875 101.65C74.2491 101.65 80.25 107.651 80.25 115.025C80.25 122.399 74.2491 128.4 66.875 128.4C59.5009 128.4 53.5 122.399 53.5 115.025C53.5 107.651 59.5009 101.65 66.875 101.65Z" fill="#292F36"/>
<path d="M115.025 96.3C104.701 96.3 96.3 104.701 96.3 115.025C96.3 125.349 104.701 133.75 115.025 133.75C125.349 133.75 133.75 125.349 133.75 115.025C133.75 104.701 125.349 96.3 115.025 96.3ZM115.025 128.4C107.651 128.4 101.65 122.399 101.65 115.025C101.65 107.651 107.651 101.65 115.025 101.65C122.399 101.65 128.4 107.651 128.4 115.025C128.4 122.399 122.399 128.4 115.025 128.4Z" fill="#292F36"/>
</svg>
